<svg xmlns="http://www.w3.org/2000/svg" viewBox="0 0 60 40" fill="none">
  <!-- Apple logo with bite -->
  <path d="M25 8c-4.4 0-8 3.6-8 8 0 2.2 0.9 4.2 2.3 5.7 1.4 1.5 3.3 2.3 5.3 2.3h0.8c0.6 0 1.2-0.1 1.8-0.3 0.6 0.2 1.2 0.3 1.8 0.3h0.8c2 0 3.9-0.8 5.3-2.3 1.4-1.5 2.3-3.5 2.3-5.7 0-4.4-3.6-8-8-8-0.8 0-1.6 0.1-2.4 0.3-0.8-0.2-1.6-0.3-2.4-0.3z" fill="#000000"/>
  <!-- Apple leaf -->
  <path d="M27 6c0.5-0.8 1.3-1.4 2.2-1.6 0.1 0.9-0.2 1.8-0.8 2.4-0.5 0.6-1.3 1-2.1 0.9-0.1-0.9 0.2-1.8 0.7-1.7z" fill="#000000"/>
  <!-- Bite mark -->
  <circle cx="32" cy="14" r="2.5" fill="white"/>
</svg>