<svg xmlns="http://www.w3.org/2000/svg" viewBox="0 0 24 24" fill="#F7931A">
  <path d="M12 2a10 10 0 1 0 10 10A10 10 0 0 0 12 2zm4.358 8.575a1.973 1.973 0 0 1-.597 1.913 2.163 2.163 0 0 1 1.116 2.025c-.11 1.25-.904 1.854-2.15 1.921v1.538h-.93v-1.524c-.241 0-.489-.004-.739-.008v1.532h-.93v-1.538c-.2-.003-.397-.005-.59-.007l-1.213-.001v-.991s.688.013.679.001a.351.351 0 0 0 .387-.308l.002-2.034v-2.87a.47.47 0 0 0-.134-.392.383.383 0 0 0-.323-.101c.012-.009-.679-.001-.679-.001l.001-.936 1.283.001c.195 0 .387.002.576.005V6.276h.93v1.486c.248.004.502.011.739.022V6.276h.93v1.515c1.134.1 1.918.472 2.042 1.784zM14.505 12.627c0-.9-.729-.823-1.969-.896l-.001-1.785c1.241.027 1.97.108 1.97.888zm-2.9 2.249l.001-1.995c1.496.033 2.368.052 2.368 1.009 0 .932-.872.952-2.369.986z"/>
</svg>