<svg xmlns="http://www.w3.org/2000/svg" viewBox="0 0 60 40" fill="none">
  <!-- Fawry circular segments logo -->
  <g transform="translate(30, 20)">
    <!-- Outer circle -->
    <circle cx="0" cy="0" r="16" fill="#FFC600"/>
    <!-- Segmented pie chart design -->
    <path d="M0 -12 A12 12 0 0 1 8.5 -8.5 L0 0 Z" fill="#007C94"/>
    <path d="M8.5 -8.5 A12 12 0 0 1 8.5 8.5 L0 0 Z" fill="#0288D1"/>
    <path d="M8.5 8.5 A12 12 0 0 1 -8.5 8.5 L0 0 Z" fill="#66BB6A"/>
    <path d="M-8.5 8.5 A12 12 0 0 1 -8.5 -8.5 L0 0 Z" fill="#42A5F5"/>
    <path d="M-8.5 -8.5 A12 12 0 0 1 0 -12 L0 0 Z" fill="#7CB342"/>
    <!-- Center circle -->
    <circle cx="0" cy="0" r="3" fill="white"/>
  </g>
</svg>