<svg xmlns="http://www.w3.org/2000/svg" viewBox="0 0 60 40" fill="none">
  <!-- Google "G" logo -->
  <path d="M30 8c-6.6 0-12 5.4-12 12s5.4 12 12 12c3.3 0 6.3-1.3 8.5-3.5l-2.4-2.4c-1.4 1.4-3.3 2.2-5.3 2.2-4.1 0-7.4-3.3-7.4-7.4s3.3-7.4 7.4-7.4c2 0 3.8 0.8 5.1 2.1l2.4-2.4c-2-2-4.7-3.2-7.5-3.2z" fill="#4285F4"/>
  <path d="M38 18h-8v4h4.5c-0.7 2.3-2.9 4-5.5 4-3.3 0-6-2.7-6-6s2.7-6 6-6c1.6 0 3.1 0.6 4.2 1.8l2.8-2.8c-2-2-4.7-3.2-7.5-3.2-5.5 0-10 4.5-10 10s4.5 10 10 10c5.5 0 9.2-3.9 9.2-9.4 0-0.6-0.1-1.2-0.2-1.8h-9z" fill="#34A853"/>
</svg>