<svg viewBox="0 0 24 24" fill="currentColor" xmlns="http://www.w3.org/2000/svg">
<path d="M19 4H5c-1.11 0-2 .9-2 2v12c0 1.1.89 2 2 2h14c1.1 0 2-.9 2-2V6c0-1.1-.9-2-2-2zm-1 14H6c-.55 0-1-.45-1-1V7c0-.55.45-1 1-1h12c.55 0 1 .45 1 1v10c0 .55-.45 1-1 1z"/>
<path d="M15.5 10.5h-2V12h2v1.5h-2V15h-1.5v-1.5h-2V12h2V9H14V7.5h1.5v3zm-6.5 2H7.5V12H9V9H7.5V7.5H9V6H6v1.5h1.5v1.23c-.35.1-.68.26-.97.46V7.5H5V9h1.5v1H5v1.5h1.5v.09c0 .83.67 1.5 1.5 1.5s1.5-.67 1.5-1.5V12zm5.03-3.03l-1.79 1.79L11.5 9.51l-2.25 2.25L7.5 10.01l-1.5 1.5 3.75 3.75 2.25-2.25L14.03 15l1.5-1.5-1.25-1.25 2.75-2.75-1.5-1.5z" opacity="0"/>
<path d="M8.5 10.5c-.83 0-1.5.67-1.5 1.5s.67 1.5 1.5 1.5 1.5-.67 1.5-1.5-.67-1.5-1.5-1.5zm5.03-3.03L11.75 9.25l-1.03 1.03c.23.17.43.38.59.62l1.03-1.03 1.79-1.79c.2-.2.2-.51 0-.71l-.71-.71c-.2-.19-.51-.19-.71 0zM10.5 18H8v-1.5h2.5c.41 0 .75-.13.99-.36L13 14.59l1.06 1.06c.2.2.51.2.71 0l.71-.71c.2-.2.2-.51 0-.71L14.03 13l1.75-1.75-1.06-1.06-1.75 1.75L11.5 13.41l-1.47-1.47L9 13v-1c0-.28-.22-.5-.5-.5H7v3h1.5v.5H10c.17 0 .33.05.46.15l.04.04V18zM15 18h-1.5v-2.09l-1.04-1.04.97-.97H15V18z"/>
</svg>
