<svg xmlns="http://www.w3.org/2000/svg" viewBox="0 0 60 40" fill="none">
  <rect width="60" height="40" rx="4" fill="#009CDE"/>
  <path d="M25.5 13.5c0.3-2 2-3.5 4-3.5h6.5c3.5 0 5 2 4.5 5.5-0.5 3.5-3 6.5-6.5 6.5h-2c-0.5 0-1 0.5-1 1l-0.5 3c-0.1 0.5-0.5 0.5-1 0.5h-3c-0.5 0-0.8-0.5-0.7-1l2.7-12z" fill="white"/>
  <path d="M33 22h2c3.5 0 6-3 6.5-6.5 0.5-3.5-1-5.5-4.5-5.5h-1c2.5 0.5 3.5 2.5 3 5.5-0.5 3-2.8 5.5-5.5 5.5h-2c-0.5 0-1 0.5-1 1l-0.5 3c-0.1 0.5-0.5 0.5-1 0.5h-1l-0.5 2.5c-0.1 0.5 0.2 1 0.7 1h3c0.5 0 0.9 0 1-0.5l0.5-3c0-0.5 0.5-1 1-1z" fill="#00457C" opacity="0.7"/>
</svg>