<svg xmlns="http://www.w3.org/2000/svg" viewBox="0 0 60 40" fill="none">
  <rect width="60" height="40" rx="4" fill="white"/>
  <path d="M24.8 10h7.5c4.5 0 7.7 1.8 7.7 6.3 0 4.8-3.5 8.7-8.3 8.7h-2.4c-0.5 0-0.9 0.4-1 0.9l-0.7 4.6c-0.1 0.5-0.5 0.9-1 0.9h-3.1c-0.4 0-0.7-0.3-0.6-0.7l3.1-19.8c0.1-0.5 0.5-0.9 1-0.9h-0.2z" fill="#003087"/>
  <path d="M29.8 16.3c0.1-0.7 0.5-0.9 1-0.9h5.5c0.7 0 1.3 0.1 1.8 0.2-0.5 3.3-2.9 5.4-6.1 5.4h-1.3c-0.5 0-0.9 0.4-1 0.9l-0.6 3.7h-2.4l0.7-4.6c0.1-0.5 0.5-0.9 1-0.9h2.4c2.9 0 5.2-2 5.2-4.9 0-0.3 0-0.6-0.1-0.9 1.1 0.7 1.8 1.9 1.8 3.4 0 3.5-2.9 6.3-6.5 6.3h-1.3c-0.5 0-0.9 0.4-1 0.9l-0.6 3.7c-0.1 0.5-0.5 0.9-1 0.9h-2.5l0.6-3.7c0.1-0.5 0.5-0.9 1-0.9h1.3c3.6 0 6.5-2.8 6.5-6.3 0-1.4-0.5-2.6-1.4-3.6 0.4 0.9 0.6 2 0.6 3.1 0 3.6-2.9 6.5-6.5 6.5h-2.4c-0.5 0-0.9 0.4-1 0.9l-0.7 4.6h-0.4l1.3-8.3z" fill="#009CDE"/>
</svg>