<svg xmlns="http://www.w3.org/2000/svg" viewBox="0 0 60 40" fill="none">
  <rect width="60" height="40" rx="4" fill="#E60000"/>
  <circle cx="30" cy="20" r="12" fill="white"/>
  <path d="M30 13c-3.9 0-7 3.1-7 7s3.1 7 7 7c1.9 0 3.6-0.7 4.9-2l-2.1-2.1c-0.8 0.8-1.8 1.2-2.8 1.2-2.3 0-4.1-1.8-4.1-4.1s1.8-4.1 4.1-4.1c1.9 0 3.5 1.3 3.9 3h-3.9v2.9h7c0.1-0.5 0.1-1 0.1-1.4 0-3.9-3.2-7.4-7.1-7.4z" fill="#E60000"/>
  <text x="30" y="33" font-family="Arial, sans-serif" font-size="5" font-weight="bold" text-anchor="middle" fill="white">CASH</text>
</svg>