<svg xmlns="http://www.w3.org/2000/svg" viewBox="0 0 60 40" fill="none">
  <!-- Vodafone speech mark in circle -->
  <circle cx="30" cy="20" r="16" fill="#E60000"/>
  <path d="M30 12c-1.5 0-2.8 0.6-3.8 1.6-1 1-1.6 2.3-1.6 3.8 0 1.5 0.6 2.8 1.6 3.8 1 1 2.3 1.6 3.8 1.6 1.5 0 2.8-0.6 3.8-1.6 1-1 1.6-2.3 1.6-3.8 0-1.5-0.6-2.8-1.6-3.8-1-1-2.3-1.6-3.8-1.6z" fill="white"/>
  <path d="M26 15c1-1 2.5-1.5 4-1.5s3 0.5 4 1.5c0.5 0.5 0.8 1.2 0.8 2s-0.3 1.5-0.8 2c-0.5 0.5-1.2 0.8-2 0.8h-4c-0.8 0-1.5-0.3-2-0.8-0.5-0.5-0.8-1.2-0.8-2s0.3-1.5 0.8-2z" fill="#E60000"/>
</svg>