<?xml version="1.0" encoding="UTF-8"?>
<svg xmlns="http://www.w3.org/2000/svg" version="1.1" viewBox="0 0 1000 1000">
  <defs>
    <style>
      .cls-1 {
        fill: #e10016;
        stroke: #e10016;
        stroke-width: .2px;
      }
    </style>
  </defs>
  <!-- Generator: Adobe Illustrator 28.7.1, SVG Export Plug-In . SVG Version: 1.2.0 Build 142)  -->
  <g>
    <g id="Layer_1">
      <g id="Layer1000">
        <path id="path2" class="cls-1" d="M562.3,236.7c-28.6,6.3-50.1,32-50.1,62.6s.2,1.5.2,2.1c45.2,9.7,68,40.3,68,80.9s-36.9,82.3-82,82.3-87.3-38-87.3-94.3,58.4-133.1,141.7-135.1c1.5,0,3.8,0,6.3.2-18.2-7-38.2-10.8-59.1-10.8-89.4,0-161.8,70.7-161.8,157.7s72.4,157.7,161.8,157.7,161.7-70.7,161.7-157.7-41-121.7-99.4-145.5h0Z"/>
        <g id="Layer1001">
          <path class="cls-1" d="M317.7,714.5c-5.1,5-9.2,13-9.5,25.7.3,12.6,4.4,20.6,9.5,25.7,11.7,11.5,32.7,11.5,44.4,0,5.1-5,9.2-13,9.5-25.7-.3-12.6-4.4-20.6-9.5-25.7-11.6-11.5-32.7-11.5-44.4,0ZM324.8,740.1c-.7-26.7,31-26.7,30.3,0,.7,26.7-31,26.7-30.3,0Z"/>
          <path class="cls-1" d="M568.1,714.5c-5.1,5-9.2,13-9.5,25.7.3,12.6,4.4,20.6,9.5,25.7,11.7,11.5,32.7,11.5,44.4,0,5.1-5,9.2-13,9.5-25.7-.3-12.6-4.4-20.6-9.5-25.7-11.6-11.5-32.7-11.5-44.4,0ZM575.2,740.1c-.7-26.7,31-26.7,30.3,0,.7,26.7-31,26.7-30.3,0Z"/>
          <path id="path8" class="cls-1" d="M423.2,682.2h16.9v92.1h-15.4v-5.3c-3.3,3.1-9.4,6.6-19.2,5.8-17.2-1.4-26.4-19-25-38.4,1.4-19.4,15.7-30.2,27.5-30.9,6.1-.3,11.3,1.2,15,2.7v-26ZM423.2,754.8v-32.3c-2.6-1.9-7.3-4-15.2-1.7-12.6,3.7-16,33.7-.3,39.6,6.6,2.4,11.7-.9,15.5-5.6h0Z"/>
          <path id="path10" class="cls-1" d="M557.8,697.2l2.5-14s-6.9-3.8-19.5-2.6c-12.6,1.2-17.3,10-17.3,21.3v6.1h-8.9v13h8.9v53.3h16.9v-53.3h13.7v-13h-13.7v-5.2c0-7.3,9.9-10,17.4-5.6h0Z"/>
          <path class="cls-1" d="M481.8,705.7c-15.4-.9-26.3,8.1-26.3,8.1l5.8,11.8s4.1-3.9,12.6-5.9c8.5-2,14.5,3.2,14.5,6.3v5.1h0c-31,.6-38.4,13.4-37.6,24.9.9,11.4,8.9,19.9,22.3,19.5,13.3-.3,16.7-7.8,16.7-7.8v6.2h15.5v-42.4c0-17-8.3-24.8-23.6-25.7ZM488.3,756.8s-7.7,5.9-15.7,4.2c-8-1.7-11-18.8,15.7-18.2v14Z"/>
          <path id="path14" class="cls-1" d="M632.7,707.3v67.1h16.9v-48.2c2.1-1.9,5.5-4.4,9.7-5.5,7.3-1.7,15.9-.2,15.9,15.7v37.9h16.5v-45.1c0-10.4-5.5-22.8-21.4-23.7-11-.6-18.2,4.4-21.7,7.6v-5.8h-15.8Z"/>
          <path id="path16" class="cls-1" d="M745.7,733.1h-26.5s1.9-13.5,12.7-13.9c10.9-.5,13.6,9.4,13.8,13.9ZM719.5,744.8h42.8s3.8-22.8-12.5-34.2c-16.4-11.3-41.5-3.2-46.2,19-4.8,22.2,3.7,41.5,22.8,44.9,19.2,3.4,33.2-5.7,33.2-5.7l-4.4-13.5c.2,0-33,18.4-35.8-10.5h0Z"/>
          <path id="path18" class="cls-1" d="M272.3,773.6h7.2l27.6-66.3h-17.1c-2.7,6.7-17.5,43.7-17.6,43.9-.2-.3-15.4-37.6-17.9-43.9h-17.1l28,66.3h6.9Z"/>
        </g>
        <path class="cls-1" d="M290.3,602.5h15v28.3c0,13.8,6.9,23.6,18.7,23.6s18.5-9.9,18.5-23.6v-28.3h15v29.7c0,19.7-14.3,36.1-33.5,36.1s-33.5-15.8-33.5-36.1v-29.7h0ZM330.2,594.5h-13.2v-12.2h13.2v12.2ZM428.8,650.7h-14c-1.7,11.7-9.7,17.5-24.2,17.5h-1.6v-11.9h1.3c5.7,0,9.1-2.1,10.3-6.2-1.2.4-4.1.6-9.1.6-13.9,0-24.1-10.1-24.1-24.2s10-24,24.1-24,23.6,10.1,23.6,24.3v9.6h13.8v14.2h0ZM400.1,636.5v-10.3c0-6.2-3.7-10.3-9.1-10.3s-8.6,4.4-8.6,10,3.7,10.6,9.1,10.6h8.6ZM488.2,626.5c0,7.3-2.2,13-6.6,17.5-4.4,4.4-10.3,6.6-17.6,6.6h-38.8v-14.2h15.9c-1.2-3.1-1.7-6.4-1.7-9.9,0-14.7,9.2-24.1,24-24.1s13.5,2.1,18.1,6.4c4.4,4.1,6.8,10.1,6.8,17.6ZM473.5,626.9c0-8.4-3.2-12.5-9.4-12.5h-1.1c-3,0-5.3,1.3-7,3.9-1.4,2.2-2.1,5-2.1,8s.8,6.2,2.3,8.5c1.8,2.6,4.4,3.8,7.6,3.8s5.5-1.2,7.3-3.7c1.6-2.1,2.3-4.8,2.3-8.1ZM469.4,594.4h-13.2v-12.2h13.2v12.2ZM513.9,650.7h-14.8v-68.5h14.8v68.5ZM578.8,650.7h-53.4v-14.2h38.6c0-14.8-8-21.4-26.9-21.4v-12.5c9.4,0,15.9.6,19.9,2,14.4,5.1,22,15.8,22,31.7l-.2,14.3h0ZM650.2,650.7h-14c-1.7,11.7-9.7,17.5-24.2,17.5h-1.6v-11.9h1.3c5.7,0,9.1-2.1,10.3-6.2-1.2.4-4.1.6-9.1.6-13.9,0-24.1-10.1-24.1-24.2s10-24,24.1-24,23.6,10.1,23.6,24.3v9.6h13.8v14.2h0ZM621.5,636.5v-10.3c0-6.2-3.7-10.3-9.1-10.3s-8.6,4.4-8.6,10,3.7,10.6,9.1,10.6h8.6ZM709.6,626.5c0,7.3-2.2,13-6.6,17.5-4.4,4.4-10.3,6.6-17.6,6.6h-38.9v-14.2h15.9c-1.2-3.1-1.7-6.4-1.7-9.9,0-14.7,9.2-24.1,24-24.1s13.5,2.1,18.1,6.4c4.5,4.1,6.9,10.1,6.9,17.6ZM694.9,626.9c0-8.4-3.2-12.5-9.4-12.5h-1c-3,0-5.3,1.3-7,3.9-1.4,2.2-2.1,5-2.1,8s.8,6.2,2.3,8.5c1.8,2.6,4.4,3.8,7.6,3.8s5.5-1.2,7.3-3.7c1.6-2.1,2.3-4.8,2.3-8.1ZM690.8,594.4h-13.2v-12.2h13.2v12.2Z"/>
      </g>
    </g>
  </g>
</svg>