<svg viewBox="0 0 24 24" fill="currentColor" xmlns="http://www.w3.org/2000/svg">
<path d="M12 2L2 7v2h2v9H3v2h18v-2h-1V9h2V7L12 2zm0 2.311L18.393 7H5.607L12 4.311zM6 9h1V8H6v1zm2 0h1V8H8v1zm2 0h1V8h-1v1zm2 0h1V8h-1v1zm2 0h1V8h-1v1zm2 0h1V8h-1v1zM4 18v-8h1v8H4zm2 0v-8h1v8H6zm2 0v-8h1v8H8zm2 0v-8h1v8h-1zm2 0v-8h1v8h-1zm2 0v-8h1v8h-1zm2 0v-8h1v8h-1zm2 0v-8h1v8h-1z"/>
<path d="M11 10h2v7h-2z" opacity=".6"/>
<path d="M4 20h16v1H4z"/>
<path d="M7 12h2v2H7zm4 0h2v2h-2zm4 0h2v2h-2z" opacity="0"/>
</svg>
