<svg viewBox="0 0 24 24" fill="currentColor" xmlns="http://www.w3.org/2000/svg">
<path d="M12 2C6.48 2 2 6.48 2 12s4.48 10 10 10 10-4.48 10-10S17.52 2 12 2zm0 18c-4.41 0-8-3.59-8-8s3.59-8 8-8 8 3.59 8 8-3.59 8-8 8zm-2.5-11.5c.83 0 1.5.67 1.5 1.5s-.67 1.5-1.5 1.5S7 10.33 7 9.5s.67-1.5 1.5-1.5zm5 0c.83 0 1.5.67 1.5 1.5s-.67 1.5-1.5 1.5-1.5-.67-1.5-1.5.67-1.5 1.5-1.5zm-2.5 7c-2.33 0-4.31-1.46-5.11-3.5h10.22c-.8 2.04-2.78 3.5-5.11 3.5z" opacity="0"/>
<path d="M17.06 7.99C17.5 7.12 17.12 6 16.01 6H7.99c-1.11 0-1.49 1.12-.95 1.99l3.54 5.55c.35.55 1.04.87 1.76.87s1.41-.32 1.76-.87l3.95-5.55zM12 14.5L9.5 10.5h5L12 14.5z" opacity="0"/>
<path fill-rule="evenodd" clip-rule="evenodd" d="M12 2C17.5228 2 22 6.47715 22 12C22 17.5228 17.5228 22 12 22C6.47715 22 2 17.5228 2 12C2 6.47715 6.47715 2 12 2ZM12.7393 6.15981C12.3244 5.51849 11.6756 5.51849 11.2607 6.15981L8.63115 9.93269C8.44581 10.2037 8.50277 10.5652 8.73928 10.7554L8.77339 10.7832C8.9921 10.9575 9.29939 10.937 9.50087 10.7355L10.5812 9.65521L10.75 6.5H13.25L13.4188 9.65521L14.4991 10.7355C14.7006 10.937 15.0079 10.9575 15.2266 10.7832L15.2607 10.7554C15.4972 10.5652 15.5542 10.2037 15.3688 9.93269L12.7393 6.15981ZM7.13863 12.0001L7.07106 11.9619C6.77949 11.793 6.53456 12.0208 6.57104 12.3392L6.93028 15.4883C6.97545 15.8774 7.34273 16.1489 7.72878 16.106L10.75 15.7813V11.5H8.5L7.13863 12.0001ZM13.25 11.5V15.7813L16.2712 16.106C16.6573 16.1489 17.0245 15.8774 17.0697 15.4883L17.429 12.3392C17.4654 12.0208 17.2205 11.793 16.9289 11.9619L16.8614 12.0001L15.5 11.5H13.25Z"/>
</svg>
